<svg xmlns="http://www.w3.org/2000/svg" width="781.48" height="722.34" viewBox="0 0 781.48 722.34">
  <g id="isometric_house" transform="translate(0 0)">
    <g id="Layer_1" data-name="Layer 1">
      <path id="Path_10" data-name="Path 10" d="M781.48,448.65l-464.15,268c-.26,2,.46,4.25-2.42,5.69a41.539,41.539,0,0,1-4.75-2.09q-98.78-57-197.5-114Q59.41,575.49,6.16,544.68c-1.45-.84-2.88-1.73-4.36-2.52A2.5,2.5,0,0,1,.35,539a19.74,19.74,0,0,0,.41-4.61q0-99.72.07-199.44c0-9.48.1-19,.06-28.44a32,32,0,0,0-.89-5c.76-.51,2-1.41,3.25-2.15q47.63-27.58,95.26-55.13Q281.66,138.36,464.77,32.52a37.15,37.15,0,0,1,11.8-4L580.22,7.9,617.59.46A9.679,9.679,0,0,1,620.41,0a3.8,3.8,0,0,1,2.28,1.22c1.25,1.58,2.19,3.41,3.39,5Q700.18,106.3,774.3,206.34c5.18,7,5.17,7,5.17,15.74V442.4C779.46,444.55,779.17,446.71,781.48,448.65ZM157.07,271,314.62,479.39,776.1,212.81,620.79,3.14Zm620.11-56L317,480.75V714.11c1.44-.74,2.49-1.22,3.49-1.79L762.71,456.71c4.15-2.4,8.27-4.86,12.48-7.16,1.59-.87,2.32-1.95,2.08-3.72a7.787,7.787,0,0,1,0-1.08q0-113.76.1-227.52C777.36,216.67,777.27,216.1,777.18,215ZM3,540.15l308.07,178,3.56-2.45V485.04a4.89,4.89,0,0,0-.62-2.64c-1.41-2-3.07-3.9-4.56-5.88q-66.3-87.87-132.65-175.7-10.8-14.34-21.6-28.74L3,303.68ZM6.69,299.94l.29.47c2.46-.49,4.93-1,7.38-1.46Q78.23,285.69,142.1,272.4c6.62-1.38,13-2.79,19.18-6.35q224.1-129.78,448.4-259.2c1.32-.76,2.59-1.57,3.89-2.36a5,5,0,0,0-2.86-.24c-2.94.57-5.87,1.21-8.8,1.79Q537.74,18.77,473.59,31.56A22.25,22.25,0,0,0,467,34.07Q238.29,166,9.7,298.08C8.68,298.67,7.69,299.32,6.69,299.94Z" fill="#9632ae"/>
      <path id="Path_11" data-name="Path 11" d="M353.53,284.16l-.48,2.73,29.53,17c-1.88,2.88-1.33,5.73-1.29,8.57.11,7.79.12,15.59.13,23.38v57.65c-1.7,1.16-3.58,2.63-5.61,3.81-10.58,6.13-21.19,12.19-31.8,18.28-1,.59-2.07,1.21-3.15,1.72-4.38,2-5.12,1.88-8.17-1.82-9-10.92-17.92-21.89-27-32.73a13.08,13.08,0,0,1-3.24-9.13c.28-18.46.32-36.94.43-55.41V313.3C305.19,311,349.9,285,353.53,284.16ZM336.47,332.5v83.62a72.651,72.651,0,0,0,8.28-3.44c11.44-6.51,22.79-13.19,34.4-19.94V308.06Zm-2.55,80.58c.17-1.11.27-1.47.28-1.82.12-25.07.21-50.13.4-75.2a4.077,4.077,0,0,0-2.47-3.91c-8.4-4.86-16.76-9.79-25.16-14.67a13.659,13.659,0,0,0-2.16-.8q-.1.5-.15,1c0,19.43.11,38.86.1,58.29a6.06,6.06,0,0,0,1.71,4.14q12.64,15.19,25.22,30.46c.58.73,1.22,1.43,2.23,2.51Zm16.31-125.23-45.38,26c9.92,5.67,19.3,11,28.62,16.4,1.44.84,2.43.34,3.61-.35l40.35-23.58a24.451,24.451,0,0,0,2-1.45Z" fill="#9632ae"/>
    </g>
  </g>
</svg>
